<svg xmlns="http://www.w3.org/2000/svg" version="1.1" xmlns:xlink="http://www.w3.org/1999/xlink" width="512" height="512" x="0" y="0" viewBox="0 0 512 512" style="enable-background:new 0 0 512 512" xml:space="preserve" class=""><g><path d="m308.147 177.707-55.71 3.488c-12.159.762-22.374 8.763-26.023 20.386l-16.641 52.993c-2.631 8.382.03 17.461 6.778 23.127 4.003 3.364 8.866 5.111 14.118 5.057 9.435-.101 17.67-6.204 20.492-15.188l14.526-46.258 6.554-.406-19.763 62.936a33.309 33.309 0 0 0-1.47 12.245l-24.473 41.782-62.368 38.971c-4.899 3.062-8.317 7.863-9.623 13.52-1.305 5.656-.338 11.47 2.724 16.369 4.109 6.577 11.192 10.19 18.43 10.19 3.923 0 7.893-1.062 11.458-3.29l68.107-42.56c5.207-3.253 9.182-7.171 12.509-12.333l15.655-24.284 28.855 21.6-22.276 41.896c-2.712 5.101-3.271 10.968-1.574 16.52s5.442 10.103 10.543 12.815a21.563 21.563 0 0 0 10.146 2.536c7.769 0 15.293-4.18 19.188-11.504l31.534-59.307c4.959-9.328 2.696-20.493-5.504-27.152l-34.813-28.274 19.913-40.424 37.879-3.861c5.748-.586 10.932-3.387 14.6-7.887s5.365-10.144 4.778-15.892c-.585-5.748-3.386-10.933-7.886-14.601s-10.143-5.365-15.892-4.779l-18.06 1.84c-.6-7.215-3.054-14.293-7.37-20.769a46.276 46.276 0 0 0-5.789-7.073 34 34 0 0 0 7.189.771c18.764 0 34.03-15.266 34.03-34.03s-15.266-34.03-34.03-34.03-34.03 15.266-34.03 34.03c0 8.584 3.201 16.429 8.464 22.422-4.784-1.362-9.881-1.927-15.174-1.594zm40.74-40.858c11.045 0 20.03 8.985 20.03 20.03s-8.985 20.03-20.03 20.03-20.03-8.985-20.03-20.03 8.985-20.03 20.03-20.03zm-92.881 214.303c-2.23 3.459-4.67 5.865-8.161 8.045l-68.107 42.56c-3.598 2.248-8.351 1.149-10.598-2.446-1.081-1.729-1.419-3.789-.955-5.802s1.672-3.716 3.4-4.795l63.828-39.884a7.013 7.013 0 0 0 2.331-2.399l19.523-33.331a33.52 33.52 0 0 0 6.878 6.92l8.047 6.024-16.187 25.109zm50.362-40.221 39.147 31.793c2.933 2.382 3.742 6.375 1.968 9.711l-31.534 59.307c-1.991 3.744-6.657 5.169-10.401 3.179-3.744-1.991-5.17-6.656-3.18-10.4l25.092-47.192a7 7 0 0 0-1.986-8.89l-52.939-39.628c-6.604-4.944-9.171-12.905-6.7-20.776l21.197-67.504a10.708 10.708 0 0 0-1.771-9.807 10.71 10.71 0 0 0-9.102-4.089l-16.142 1a7.002 7.002 0 0 0-6.246 4.89l-15.967 50.85c-.985 3.135-3.98 5.349-7.285 5.384a7.417 7.417 0 0 1-4.964-1.778c-2.406-2.02-3.358-5.244-2.426-8.214l16.642-52.993c1.928-6.141 7.117-10.205 13.541-10.607l55.71-3.488c11.119-.692 20.639 4.025 26.815 13.294 6.176 9.267 6.867 19.874 1.946 29.865l-33.282 67.565a7 7 0 0 0 1.866 8.527zm67.97-80.863a7.642 7.642 0 0 1 5.627 1.703 7.629 7.629 0 0 1 1.1 10.796c-1.305 1.601-3.14 2.597-5.167 2.803l-29.16 2.972 3.604-7.317a46.178 46.178 0 0 0 3.284-8.847l20.711-2.11zM88.47 380.213c-18.331-31.4-28.02-67.322-28.02-103.882 0-30.021 6.306-58.97 18.743-86.042a6.998 6.998 0 0 1 9.283-3.439 7 7 0 0 1 3.439 9.283c-11.588 25.227-17.464 52.209-17.464 80.199 0 67.786 36.314 131.313 94.772 165.792a6.998 6.998 0 0 1 2.473 9.585 6.999 6.999 0 0 1-9.585 2.473c-30.389-17.923-55.854-43.501-73.64-73.968zm178.317 102.455H7.5v-14h259.287c106.055 0 192.337-86.282 192.337-192.337 0-92.844-66.243-171.855-156.117-188.937l8.537 8.107a7 7 0 0 1-9.641 10.151l-24.186-22.97a7 7 0 0 1 1.92-11.446l31.028-14.13a7 7 0 0 1 5.801 12.741l-9.082 4.136c95.532 19.015 165.739 103.352 165.739 202.348 0 113.775-92.562 206.337-206.337 206.337zm237.712-7a6.999 6.999 0 0 1-2.831 5.623l-26.015 19.288a6.97 6.97 0 0 1-4.164 1.377 7 7 0 0 1-4.174-12.624l8.989-6.665h-82.577a7 7 0 1 1 0-14h82.577l-8.989-6.665a7 7 0 1 1 8.338-11.246l26.015 19.288a6.999 6.999 0 0 1 2.831 5.623zM136.607 275.946h45.877a7 7 0 1 1 0 14h-45.877a7 7 0 1 1 0-14zm36.193 36.829h29.213a7 7 0 1 1 0 14H172.8a7 7 0 1 1 0-14zm21.925-66.658a7 7 0 0 1-7 7h-32.069a7 7 0 1 1 0-14h32.069a7 7 0 0 1 7 7zM72.042 128.888l12.149 2.396 6.052 14.608-6.897 10.286a7 7 0 0 0 .864 8.849l21.19 21.19a7 7 0 0 0 8.849.864l10.286-6.898 14.607 6.052 2.396 12.15a7.001 7.001 0 0 0 6.868 5.646h29.967a7 7 0 0 0 6.868-5.646l2.396-12.149 14.608-6.052 10.286 6.898a7 7 0 0 0 8.849-.864l21.19-21.19a7 7 0 0 0 .864-8.849l-6.898-10.286 6.052-14.608 12.149-2.396a7 7 0 0 0 5.646-6.868V92.054a7 7 0 0 0-5.646-6.868l-12.149-2.396-6.052-14.608 6.898-10.286a7 7 0 0 0-.864-8.849l-21.19-21.19a6.998 6.998 0 0 0-8.848-.864l-10.286 6.898-14.608-6.052-2.396-12.149a7 7 0 0 0-6.868-5.646h-29.967a7 7 0 0 0-6.868 5.646l-2.396 12.149-14.608 6.052-10.286-6.898a7 7 0 0 0-8.848.864l-21.19 21.19a7 7 0 0 0-.864 8.849l6.897 10.286-6.052 14.608-12.149 2.396a7 7 0 0 0-5.646 6.868v29.967a7 7 0 0 0 5.646 6.868zm8.354-31.081L90.577 95.8a7 7 0 0 0 5.113-4.188l8.922-21.536a7.003 7.003 0 0 0-.653-6.578l-5.781-8.621 13.052-13.052 8.621 5.781a6.997 6.997 0 0 0 6.578.653l21.535-8.922a6.997 6.997 0 0 0 4.188-5.112l2.008-10.182h18.458l2.007 10.181a7 7 0 0 0 4.188 5.113l21.536 8.922a7 7 0 0 0 6.578-.653l8.621-5.781L228.6 54.877l-5.781 8.621a6.997 6.997 0 0 0-.653 6.578l8.922 21.536a6.995 6.995 0 0 0 5.113 4.188l10.182 2.007v18.458l-10.182 2.007a7 7 0 0 0-5.113 4.188l-8.922 21.535a7.003 7.003 0 0 0 .653 6.578l5.781 8.621-13.052 13.052-8.621-5.781a6.997 6.997 0 0 0-6.578-.653l-21.535 8.922a6.995 6.995 0 0 0-4.188 5.113l-2.007 10.182h-18.458l-2.008-10.182a7 7 0 0 0-4.188-5.112l-21.535-8.922a6.998 6.998 0 0 0-6.578.653l-8.621 5.781-13.052-13.052 5.781-8.621a7.003 7.003 0 0 0 .653-6.578l-8.922-21.535a6.997 6.997 0 0 0-5.113-4.188l-10.181-2.007V97.808zm82.993 62.38c29.308 0 53.151-23.843 53.151-53.151s-23.844-53.151-53.151-53.151-53.151 23.843-53.151 53.151 23.843 53.151 53.151 53.151zm0-92.302c21.588 0 39.151 17.563 39.151 39.151s-17.563 39.151-39.151 39.151-39.151-17.563-39.151-39.151 17.563-39.151 39.151-39.151z" fill="#f26f24" opacity="1" data-original="#000000" class=""></path></g></svg>