<svg xmlns="http://www.w3.org/2000/svg" version="1.1" xmlns:xlink="http://www.w3.org/1999/xlink" width="512" height="512" x="0" y="0" viewBox="0 0 8.467 8.467" style="enable-background:new 0 0 512 512" xml:space="preserve" class=""><g><path d="M2.646.793a.265.265 0 0 0-.266.266v.263h-.857c-.4 0-.729.331-.729.73v4.891c0 .4.33.73.729.73h5.42c.4 0 .73-.33.73-.73v-4.89c0-.4-.33-.73-.73-.73h-.858v-.264a.265.265 0 0 0-.264-.266.265.265 0 0 0-.265.266v.263H2.909V1.06a.265.265 0 0 0-.263-.266zM1.523 1.852h.857v.265a.265.265 0 0 0 .266.264.265.265 0 0 0 .263-.264v-.265h2.647v.265a.265.265 0 0 0 .265.264.265.265 0 0 0 .264-.264v-.265h.858c.115 0 .2.085.2.2v1.124h-5.82V2.053c0-.116.085-.201.2-.201zm-.2 1.851h5.82v3.24a.196.196 0 0 1-.2.201h-5.42a.194.194 0 0 1-.2-.2z" fill="#fff5f5" opacity="1" data-original="#000000" class=""></path></g></svg>