<svg xmlns="http://www.w3.org/2000/svg" version="1.1" xmlns:xlink="http://www.w3.org/1999/xlink" width="512" height="512" x="0" y="0" viewBox="0 0 252 252" style="enable-background:new 0 0 512 512" xml:space="preserve" class=""><g><path d="m180.636 74.573-83.764 83.763-25.509-25.508a9 9 0 0 0-12.728 0 9 9 0 0 0 0 12.728l31.873 31.873a8.967 8.967 0 0 0 6.364 2.636 8.973 8.973 0 0 0 6.364-2.636L193.364 87.3a9 9 0 1 0-12.728-12.727z" fill="#00a517" opacity="1" data-original="#000000" class=""></path><path d="M126 0C56.523 0 0 56.523 0 126s56.523 126 126 126 126-56.523 126-126S195.477 0 126 0zm0 234c-59.551 0-108-48.449-108-108S66.449 18 126 18s108 48.449 108 108-48.449 108-108 108z" fill="#00a517" opacity="1" data-original="#000000" class=""></path></g></svg>