<?xml version="1.0" encoding="UTF-8"?>
<!DOCTYPE svg PUBLIC "-//W3C//DTD SVG 1.0//EN" "http://www.w3.org/TR/2001/REC-SVG-20010904/DTD/svg10.dtd">
<!-- Creator: CorelDRAW -->
<svg xmlns="http://www.w3.org/2000/svg" xml:space="preserve" width="50px" height="50px" version="1.0" style="shape-rendering:geometricPrecision; text-rendering:geometricPrecision; image-rendering:optimizeQuality; fill-rule:evenodd; clip-rule:evenodd"
viewBox="0 0 50 50"
 xmlns:xlink="http://www.w3.org/1999/xlink"
 xmlns:xodm="http://www.corel.com/coreldraw/odm/2003">
 <defs>
  <style type="text/css">
   <![CDATA[
    .fil1 {fill:#FEFEFE}
    .fil0 {fill:#1D1D1E;fill-rule:nonzero}
   ]]>
  </style>
 </defs>
 <g id="Layer_x0020_1">
  <metadata id="CorelCorpID_0Corel-Layer"/>
  <g id="_2005442766704">
   <path class="fil0" d="M47.5 25c0,12.43 -10.07,22.5 -22.5,22.5 -12.43,0 -22.5,-10.07 -22.5,-22.5 0,-12.43 10.07,-22.5 22.5,-22.5 12.43,0 22.5,10.07 22.5,22.5z"/>
   <g>
    <path class="fil1" d="M30.82 34.83l-15.81 0c1.44,5.38 3.19,3.95 15.81,3.95 5.92,0 3.95,-9.92 3.95,-20.75l-3.95 0 0 16.8z"/>
    <path class="fil1" d="M15.01 15.07l0 16.8 3.95 0 0 -16.8 15.81 0c-1.43,-5.38 -3.19,-3.95 -15.81,-3.95 -2.31,0 -3.95,1.64 -3.95,3.95z"/>
   </g>
  </g>
 </g>
</svg>
