<?xml version="1.0" encoding="UTF-8" standalone="no"?>
<!-- Created with Inkscape (http://www.inkscape.org/) -->

<svg
   version="1.1"
   id="svg9"
   xml:space="preserve"
   width="682.66669"
   height="682.66669"
   viewBox="0 0 682.66669 682.66669"
   xmlns="http://www.w3.org/2000/svg"
   xmlns:svg="http://www.w3.org/2000/svg"><defs
     id="defs13"><clipPath
       clipPathUnits="userSpaceOnUse"
       id="clipPath23"><path
         d="M 0,512 H 512 V 0 H 0 Z"
         id="path21" /></clipPath></defs><g
     id="g15"
     transform="matrix(1.3333333,0,0,-1.3333333,0,682.66667)"><g
       id="g17"><g
         id="g19"
         clip-path="url(#clipPath23)"><g
           id="g25"
           transform="translate(500.5,302)"><path
             d="m 0,0 c 2.209,0 4,-1.791 4,-4 v -42 c 0,-15.72 -1.46,-31.09 -4.26,-46 -21.663,-115.813 -123.694,-203.337 -245.992,-202.494 -137.227,0.946 -247.05,111.825 -246.748,249.055 0.303,136.982 111.447,247.939 248.5,247.939 67.146,0 128.069,-26.638 172.799,-69.908 1.615,-1.562 1.657,-4.136 0.068,-5.725 l -59.418,-59.418 c -1.53,-1.53 -4.001,-1.569 -5.568,-0.077 -28.074,26.722 -66.058,43.128 -107.881,43.128 -86.364,0 -155.911,-69.052 -156.496,-155.415 -0.59,-86.928 69.704,-157.585 156.496,-157.585 70.42,0 129.98,46.52 149.62,110.5 H -240.5 c -2.209,0 -4,1.791 -4,4 v 84 c 0,2.209 1.791,4 4,4 z"
             style="fill:#2196f3;fill-opacity:1;fill-rule:nonzero;stroke:none"
             id="path27" /></g><g
           id="g29"
           transform="translate(500.5,302)"><path
             d="m 0,0 h -30 c 2.209,0 4,-1.791 4,-4 v -42 c 0,-15.72 -1.46,-31.09 -4.26,-46 -20.667,-110.488 -114.481,-195.225 -229.256,-202.052 4.391,-0.26 8.812,-0.411 13.264,-0.442 C -123.953,-295.337 -21.923,-207.813 -0.26,-92 2.54,-77.09 4,-61.72 4,-46 V -4 C 4,-1.791 2.209,0 0,0"
             style="fill:#1e88e5;fill-opacity:1;fill-rule:nonzero;stroke:none"
             id="path31" /></g><g
           id="g33"
           transform="translate(113.8501,321.54)"><path
             d="m 0,0 -75.47,54.53 c 42.34,76.58 123.93,128.43 217.62,128.43 67.146,0 128.069,-26.638 172.799,-69.908 1.615,-1.562 1.657,-4.136 0.068,-5.725 L 255.6,47.91 c -1.527,-1.527 -3.998,-1.574 -5.562,-0.085 C 221.963,74.551 183.977,90.96 142.15,90.96 79.12,90.96 24.79,53.7 0,0"
             style="fill:#f44336;fill-opacity:1;fill-rule:nonzero;stroke:none"
             id="path35" /></g><g
           id="g37"
           transform="translate(92.0625,337.2822)"><path
             d="m 0,0 21.788,-15.742 c 22.627,49.014 69.869,84.315 125.868,90.105 0.422,0.046 0.826,0.102 1.256,0.142 -4.929,0.468 -9.923,0.713 -14.975,0.713 C 76.999,75.218 27.377,45.2 0,0"
             style="fill:#e53935;fill-opacity:1;fill-rule:nonzero;stroke:none"
             id="path39" /></g><g
           id="g41"
           transform="translate(398.7993,434.5923)"><path
             d="M 0,0 C 1.615,-1.562 1.657,-4.136 0.068,-5.725 L -48.16,-53.952 c 4.62,-3.514 9.044,-7.273 13.242,-11.269 1.566,-1.491 4.038,-1.452 5.568,0.078 L 30.068,-5.725 C 31.657,-4.136 31.615,-1.562 30,0 -14.73,43.27 -75.653,69.908 -142.799,69.908 c -5.039,0 -10.038,-0.168 -15.003,-0.464 C -96.608,65.799 -41.375,40.023 0,0"
             style="fill:#e53935;fill-opacity:1;fill-rule:nonzero;stroke:none"
             id="path43" /></g><g
           id="g45"
           transform="translate(438.29,87.1201)"><path
             d="m 0,0 c -45.38,-48.97 -110.26,-79.62 -182.29,-79.62 -97.29,0 -181.52,55.91 -222.31,137.36 l 77.05,52.8 c 23.12,-57.53 79.45,-98.16 145.26,-98.16 41.3,0 78.86,16 106.82,42.14 z"
             style="fill:#4caf50;fill-opacity:1;fill-rule:nonzero;stroke:none"
             id="path47" /></g><g
           id="g49"
           transform="translate(110.7402,197.6602)"><path
             d="m 0,0 -22.721,-15.57 c 26.389,-49.16 78.282,-82.59 137.981,-82.59 5.048,0 10.039,0.247 14.965,0.715 C 70.965,-91.795 21.338,-53.097 0,0"
             style="fill:#43a047;fill-opacity:1;fill-rule:nonzero;stroke:none"
             id="path51" /></g><g
           id="g53"
           transform="translate(256,7.5)"><path
             d="M 0,0 C 72.03,0 136.91,30.65 182.29,79.62 L 163.805,92.974 C 121.195,39.944 57.274,4.764 -14.962,0.452 -10.012,0.158 -5.024,0 0,0"
             style="fill:#43a047;fill-opacity:1;fill-rule:nonzero;stroke:none"
             id="path55" /></g><g
           id="g57"
           transform="translate(99.5,256)"><path
             d="m 0,0 c 0,-20.62 3.99,-40.31 11.24,-58.34 l -77.05,-52.8 C -82.57,-77.7 -92,-39.95 -92,0 c 0,43.55 11.2,84.48 30.88,120.07 L 14.35,65.54 C 5.14,45.61 0,23.4 0,0"
             style="fill:#ffc107;fill-opacity:1;fill-rule:nonzero;stroke:none"
             id="path59" /></g><g
           id="g61"
           transform="translate(88.0195,182.0903)"><path
             d="M 0,0 22.721,15.57 C 15.471,33.6 11.48,53.29 11.48,73.91 c 0,23.4 5.141,45.61 14.351,65.54 L 4.043,155.192 C -10.105,131.832 -18.316,104.42 -18.516,74.995 -18.7,47.859 -11.976,22.31 0,0"
             style="fill:#ffb300;fill-opacity:1;fill-rule:nonzero;stroke:none"
             id="path63" /></g><g
           id="g65"
           transform="translate(448.5386,302)"><path
             d="m 0,0 h 51.961 c 2.209,0 4,-1.791 4,-4 v -42 c 0,-15.72 -1.46,-31.09 -4.259,-46 -21.664,-115.813 -123.694,-203.337 -245.993,-202.494 -137.227,0.946 -247.05,111.825 -246.747,249.055 0.192,86.974 45.069,163.457 112.89,207.708"
             style="fill:none;stroke:#000000;stroke-width:15;stroke-linecap:round;stroke-linejoin:round;stroke-miterlimit:10;stroke-dasharray:none;stroke-opacity:1"
             id="path67" /></g><g
           id="g69"
           transform="translate(161.7769,131.0337)"><path
             d="m 0,0 c 26.211,-19.795 58.847,-31.534 94.223,-31.534 70.42,0 129.98,46.52 149.62,110.5 H 98.223 c -2.209,0 -4,1.791 -4,4 v 84 c 0,2.209 1.791,4 4,4 H 254.3"
             style="fill:none;stroke:#000000;stroke-width:15;stroke-linecap:round;stroke-linejoin:round;stroke-miterlimit:10;stroke-dasharray:none;stroke-opacity:1"
             id="path71" /></g><g
           id="g73"
           transform="translate(148.2505,479.9873)"><path
             d="m 0,0 c 32.595,15.709 69.145,24.513 107.75,24.513 67.146,0 128.069,-26.638 172.799,-69.908 1.615,-1.563 1.657,-4.136 0.068,-5.725 l -59.418,-59.418 c -1.53,-1.53 -4.002,-1.569 -5.569,-0.078 -28.073,26.723 -66.057,43.129 -107.88,43.129 -86.365,0 -155.911,-69.053 -156.497,-155.415 -0.271,-39.968 14.443,-76.496 38.855,-104.298"
             style="fill:none;stroke:#000000;stroke-width:15;stroke-linecap:round;stroke-linejoin:round;stroke-miterlimit:10;stroke-dasharray:none;stroke-opacity:1"
             id="path75" /></g><g
           id="g77"
           transform="translate(113.0059,322.1499)"><path
             d="M 0,0 -74.205,53.616"
             style="fill:none;stroke:#000000;stroke-width:15;stroke-linecap:round;stroke-linejoin:round;stroke-miterlimit:10;stroke-dasharray:none;stroke-opacity:1"
             id="path79" /></g><g
           id="g81"
           transform="translate(33.8843,144.9932)"><path
             d="M 0,0 76.332,52.308"
             style="fill:none;stroke:#000000;stroke-width:15;stroke-linecap:round;stroke-linejoin:round;stroke-miterlimit:10;stroke-dasharray:none;stroke-opacity:1"
             id="path83" /></g><g
           id="g85"
           transform="translate(363.1606,141.394)"><path
             d="M 0,0 74.832,-54.059"
             style="fill:none;stroke:#000000;stroke-width:15;stroke-linecap:round;stroke-linejoin:round;stroke-miterlimit:10;stroke-dasharray:none;stroke-opacity:1"
             id="path87" /></g></g></g></g></svg>
