<?xml version="1.0" encoding="UTF-8"?>
<!DOCTYPE svg PUBLIC "-//W3C//DTD SVG 1.0//EN" "http://www.w3.org/TR/2001/REC-SVG-20010904/DTD/svg10.dtd">
<!-- Creator: CorelDRAW -->
<svg xmlns="http://www.w3.org/2000/svg" xml:space="preserve" width="50px" height="50px" version="1.0" style="shape-rendering:geometricPrecision; text-rendering:geometricPrecision; image-rendering:optimizeQuality; fill-rule:evenodd; clip-rule:evenodd"
viewBox="0 0 50 50"
 xmlns:xlink="http://www.w3.org/1999/xlink"
 xmlns:xodm="http://www.corel.com/coreldraw/odm/2003">
 <defs>
  <style type="text/css">
   <![CDATA[
    .fil1 {fill:#FEFEFE;fill-rule:nonzero}
    .fil0 {fill:#1D1D1E;fill-rule:nonzero}
   ]]>
  </style>
 </defs>
 <g id="Layer_x0020_1">
  <metadata id="CorelCorpID_0Corel-Layer"/>
  <g id="_2005330818064">
   <path class="fil0" d="M47.5 25c0,12.43 -10.07,22.5 -22.5,22.5 -12.43,0 -22.5,-10.07 -22.5,-22.5 0,-12.43 10.07,-22.5 22.5,-22.5 12.43,0 22.5,10.07 22.5,22.5z"/>
   <path class="fil1" d="M16.27 11.39c1.52,0 2.76,1.23 2.76,2.76 0,1.52 -1.24,2.76 -2.76,2.76 -1.53,0 -2.77,-1.24 -2.77,-2.76 0,-1.53 1.24,-2.76 2.77,-2.76zm-2.39 7.61l4.77 0 0 15.33 -4.77 0 0 -15.33z"/>
   <path class="fil1" d="M21.64 19l4.57 0 0 2.1 0.06 0c0.64,-1.21 2.19,-2.48 4.52,-2.48 4.82,0 5.71,3.17 5.71,7.3l0 8.41 -4.76 0 0 -7.45c0,-1.78 -0.04,-4.07 -2.48,-4.07 -2.48,0 -2.86,1.94 -2.86,3.94l0 7.58 -4.76 0 0 -15.33z"/>
  </g>
 </g>
</svg>
