<svg xmlns="http://www.w3.org/2000/svg" version="1.1" xmlns:xlink="http://www.w3.org/1999/xlink" width="512" height="512" x="0" y="0" viewBox="0 0 24 24" style="enable-background:new 0 0 512 512" xml:space="preserve" class=""><g><path d="M22 12.75a.75.75 0 0 1-.75-.75A9.25 9.25 0 0 0 5.459 5.459a9.427 9.427 0 0 0-.862.993.75.75 0 0 1-1.2-.9 11.235 11.235 0 0 1 1-1.15A10.75 10.75 0 0 1 22.75 12a.75.75 0 0 1-.75.75zM12 22.75A10.748 10.748 0 0 1 1.25 12a.75.75 0 0 1 1.5 0 9.25 9.25 0 0 0 15.791 6.541 9.331 9.331 0 0 0 .861-.992.751.751 0 0 1 1.2.9 11.087 11.087 0 0 1-1 1.151A10.684 10.684 0 0 1 12 22.75z" fill="#ff7c00" opacity="1" data-original="#000000" class=""></path><path d="M20.485 21.235a.75.75 0 0 1-.75-.75v-2.078h-2.079a.75.75 0 0 1 0-1.5h2.829a.75.75 0 0 1 .75.75v2.828a.75.75 0 0 1-.75.75zM6.343 7.093H3.515a.75.75 0 0 1-.75-.75V3.515a.75.75 0 0 1 1.5 0v2.078h2.078a.75.75 0 0 1 0 1.5zM16.946 11.531l1.408-2.347L11.5 5.068l-1.414 2.347a3.709 3.709 0 0 0 .069 3.3.2.2 0 0 1-.157.26 3.707 3.707 0 0 0-2.944 1.493l-1.408 2.348 6.859 4.116 1.409-2.347a3.712 3.712 0 0 0-.068-3.3.2.2 0 0 1 .156-.26 3.709 3.709 0 0 0 2.944-1.494z" fill="#ff7c00" opacity="1" data-original="#000000" class=""></path><rect width="10" height="2" x="10.087" y="5.855" rx="1" transform="rotate(30.95 15.1 6.863)" fill="#ff7c00" opacity="1" data-original="#000000" class=""></rect><rect width="10" height="2" x="3.913" y="16.145" rx="1" transform="rotate(30.95 8.92 17.163)" fill="#ff7c00" opacity="1" data-original="#000000" class=""></rect></g></svg>