<svg xmlns="http://www.w3.org/2000/svg" version="1.1" xmlns:xlink="http://www.w3.org/1999/xlink" width="512" height="512" x="0" y="0" viewBox="0 0 512 512" style="enable-background:new 0 0 512 512" xml:space="preserve" class=""><g><path d="M136.533 384c-14.138 0-25.6 11.462-25.6 25.6v51.2a8.533 8.533 0 0 0 17.066 0v-17.067h17.067V460.8c0 4.713 3.82 8.533 8.533 8.533s8.533-3.82 8.533-8.533v-51.2c.001-14.138-11.46-25.6-25.599-25.6zM128 426.667V409.6a8.533 8.533 0 0 1 17.066 0v17.067zM204.8 384h-17.067a8.533 8.533 0 0 0-8.533 8.533V460.8a8.533 8.533 0 0 0 17.066 0v-25.6h8.533c14.138 0 25.6-11.462 25.6-25.6.001-14.138-11.46-25.6-25.599-25.6zm0 34.133h-8.533v-17.067h8.533a8.533 8.533 0 0 1 8.533 8.533 8.533 8.533 0 0 1-8.533 8.534z" fill="#fffcfc" opacity="1" data-original="#000000" class=""></path><path d="M460.8 0H51.2C22.935.028.028 22.935 0 51.2v349.867c.028 28.265 22.935 51.172 51.2 51.2h12.467c11.222 35.519 44.15 59.683 81.399 59.733h221.867c37.249-.051 70.178-24.215 81.399-59.733H460.8c28.265-.028 51.172-22.935 51.2-51.2V51.2C511.972 22.935 489.065.028 460.8 0zM51.2 17.067h409.6c18.851 0 34.133 15.282 34.133 34.133v51.2H17.067V51.2c0-18.851 15.282-34.133 34.133-34.133zm315.733 477.866H145.067c-37.703 0-68.267-30.564-68.267-68.267s30.564-68.267 68.267-68.267h221.867c37.703 0 68.267 30.564 68.267 68.267s-30.565 68.267-68.268 68.267zM460.8 435.2h-8.969a85.265 85.265 0 0 0-84.898-93.866H145.067A85.268 85.268 0 0 0 60.169 435.2H51.2c-18.851 0-34.133-15.282-34.133-34.133v-281.6h477.867v281.6c-.001 18.851-15.283 34.133-34.134 34.133z" fill="#fffcfc" opacity="1" data-original="#000000" class=""></path><path d="M59.733 85.333c14.138 0 25.6-11.462 25.6-25.6s-11.462-25.6-25.6-25.6-25.6 11.462-25.6 25.6 11.462 25.6 25.6 25.6zm0-34.133a8.533 8.533 0 1 1 0 17.066 8.533 8.533 0 0 1 0-17.066zM128 85.333c14.139 0 25.6-11.462 25.6-25.6s-11.462-25.6-25.6-25.6-25.6 11.462-25.6 25.6 11.462 25.6 25.6 25.6zm0-34.133a8.533 8.533 0 1 1 0 17.066 8.533 8.533 0 0 1 0-17.066zM196.267 85.333c14.138 0 25.6-11.462 25.6-25.6s-11.462-25.6-25.6-25.6-25.6 11.462-25.6 25.6 11.461 25.6 25.6 25.6zm0-34.133a8.533 8.533 0 1 1 0 17.066 8.533 8.533 0 0 1 0-17.066zM366.933 85.333h85.333c14.138 0 25.6-11.462 25.6-25.6s-11.462-25.6-25.6-25.6h-85.333c-14.138 0-25.6 11.462-25.6 25.6s11.462 25.6 25.6 25.6zm0-34.133h85.333a8.533 8.533 0 0 1 0 17.066h-85.333a8.533 8.533 0 0 1 0-17.066zM273.067 384H256a8.533 8.533 0 0 0-8.533 8.533V460.8a8.533 8.533 0 0 0 17.066 0v-25.6h8.533c14.138 0 25.6-11.462 25.6-25.6.001-14.138-11.461-25.6-25.599-25.6zm0 34.133h-8.533v-17.067h8.533a8.533 8.533 0 0 1 8.533 8.533 8.533 8.533 0 0 1-8.533 8.534zM341.333 452.267H332.8v-59.733c0-4.713-3.82-8.533-8.533-8.533s-8.533 3.82-8.533 8.533v59.733c0 9.426 7.641 17.067 17.067 17.067h8.533a8.534 8.534 0 0 0-.001-17.067zM385.434 387.797l-9.967 14.976-9.967-14.95a8.535 8.535 0 0 0-14.2 9.472l15.633 23.398V460.8a8.533 8.533 0 0 0 17.066 0v-40.107l15.633-23.45a8.537 8.537 0 0 0-6.548-13.253 8.533 8.533 0 0 0-7.651 3.781v.026zM204.8 170.667h-20.326l-9.993-19.985a25.471 25.471 0 0 0-22.895-14.148H121.48a25.471 25.471 0 0 0-22.895 14.148l-9.993 19.985H68.267c-14.138 0-25.6 11.462-25.6 25.6v102.4c0 14.138 11.462 25.6 25.6 25.6H204.8c14.138 0 25.6-11.462 25.6-25.6v-102.4c0-14.139-11.461-25.6-25.6-25.6zm-90.948-12.348a8.476 8.476 0 0 1 7.629-4.719h30.106a8.476 8.476 0 0 1 7.629 4.719l6.178 12.348h-57.719zm-54.119 37.948a8.533 8.533 0 0 1 8.533-8.533H204.8a8.533 8.533 0 0 1 8.533 8.533V230.4a8.533 8.533 0 0 1-8.533 8.533h-34.133c0-9.426-7.641-17.067-17.067-17.067h-34.133c-9.426 0-17.067 7.641-17.067 17.067H68.267a8.533 8.533 0 0 1-8.533-8.533v-34.133zM153.6 256h-34.133v-17.067H153.6zm51.2 51.2H68.267a8.533 8.533 0 0 1-8.533-8.533V254.43a25.296 25.296 0 0 0 8.533 1.57H102.4c0 9.426 7.641 17.067 17.067 17.067H153.6c9.426 0 17.067-7.641 17.067-17.067H204.8c2.914-.028 5.8-.559 8.533-1.57v44.237a8.533 8.533 0 0 1-8.533 8.533zM264.533 170.667H307.2a8.533 8.533 0 0 0 0-17.066h-42.667a8.533 8.533 0 0 0 0 17.066zM460.8 187.733H264.533a8.533 8.533 0 0 0 0 17.066H460.8a8.533 8.533 0 0 0 0-17.066zM460.8 221.867h-42.667c-4.713 0-8.533 3.82-8.533 8.533s3.82 8.533 8.533 8.533H460.8a8.533 8.533 0 0 0 0-17.066zM264.533 238.933H384a8.533 8.533 0 0 0 0-17.066H264.533a8.533 8.533 0 0 0 0 17.066zM460.8 256H324.267a8.533 8.533 0 0 0 0 17.066H460.8c4.713 0 8.533-3.82 8.533-8.533S465.513 256 460.8 256zM264.533 273.067h25.6c4.713 0 8.533-3.82 8.533-8.533s-3.82-8.534-8.533-8.534h-25.6a8.535 8.535 0 0 0 0 17.067zM375.467 290.133H264.533a8.533 8.533 0 0 0 0 17.066h110.933c4.713 0 8.533-3.82 8.533-8.533s-3.819-8.533-8.532-8.533z" fill="#fffcfc" opacity="1" data-original="#000000" class=""></path></g></svg>