<?xml version="1.0" encoding="UTF-8"?>
<!DOCTYPE svg PUBLIC "-//W3C//DTD SVG 1.0//EN" "http://www.w3.org/TR/2001/REC-SVG-20010904/DTD/svg10.dtd">
<!-- Creator: CorelDRAW -->
<svg xmlns="http://www.w3.org/2000/svg" xml:space="preserve" width="50px" height="50px" version="1.0" style="shape-rendering:geometricPrecision; text-rendering:geometricPrecision; image-rendering:optimizeQuality; fill-rule:evenodd; clip-rule:evenodd"
viewBox="0 0 50 50"
 xmlns:xlink="http://www.w3.org/1999/xlink"
 xmlns:xodm="http://www.corel.com/coreldraw/odm/2003">
 <defs>
  <style type="text/css">
   <![CDATA[
    .fil1 {fill:#FEFEFE;fill-rule:nonzero}
    .fil0 {fill:#1D1D1E;fill-rule:nonzero}
   ]]>
  </style>
 </defs>
 <g id="Layer_x0020_1">
  <metadata id="CorelCorpID_0Corel-Layer"/>
  <path class="fil0" d="M47.5 25c0,12.43 -10.07,22.5 -22.5,22.5 -12.43,0 -22.5,-10.07 -22.5,-22.5 0,-12.43 10.07,-22.5 22.5,-22.5 12.43,0 22.5,10.07 22.5,22.5z"/>
  <path class="fil1" d="M29.58 25.53l-6.78 3.35c-0.27,0.15 -1.17,-0.05 -1.17,-0.35l0 -6.89c0,-0.3 0.91,-0.49 1.18,-0.34l6.49 3.53c0.27,0.15 0.56,0.55 0.28,0.7zm8.89 -4.05c0,-3.26 -2.65,-5.91 -5.91,-5.91l-15.12 0c-3.27,0 -5.91,2.65 -5.91,5.91l0 7.04c0,3.26 2.64,5.91 5.91,5.91l15.12 0c3.26,0 5.91,-2.65 5.91,-5.91l0 -7.04z"/>
 </g>
</svg>
